<?xml version="1.0" encoding="utf-8"?>
<!-- Generator: Adobe Illustrator 24.0.2, SVG Export Plug-In . SVG Version: 6.00 Build 0)  -->
<svg version="1.1" id="Слой_1" xmlns="http://www.w3.org/2000/svg" xmlns:xlink="http://www.w3.org/1999/xlink" x="0px" y="0px"
	 viewBox="0 0 24 24.1" style="enable-background:new 0 0 24 24.1;" xml:space="preserve">
<style type="text/css">
	.st0{fill:#FFFFFF;}
</style>
<path class="st0" d="M24,12c0-0.7-0.5-1.3-1.1-1.4c-0.2-1.9-1-3.7-2.2-5.2C20.9,5.1,21,4.8,21,4.5C21,3.7,20.3,3,19.5,3
	c-0.3,0-0.6,0.1-0.8,0.3c-1.5-1.2-3.3-1.9-5.2-2.2C13.3,0.5,12.7,0,12,0s-1.3,0.5-1.4,1.1c-4.9,0.7-8.8,4.5-9.5,9.5
	C0.5,10.7,0,11.3,0,12s0.5,1.3,1.1,1.4c0.3,1.9,1,3.7,2.2,5.2C3.1,18.9,3,19.2,3,19.5C3,20.3,3.7,21,4.5,21c0.3,0,0.6-0.1,0.8-0.3
	c1.5,1.2,3.3,1.9,5.2,2.2c0.2,0.6,0.8,1.1,1.4,1.1c0.7,0,1.3-0.5,1.4-1.1c4.9-0.6,8.8-4.5,9.5-9.5C23.5,13.3,24,12.7,24,12z
	 M4.1,18.1c-1.1-1.4-1.7-3-2-4.7c0.4-0.2,0.7-0.5,0.8-0.9H6c0.1,1.5,0.5,3.1,1.2,4.6c-0.7,0.3-1.4,0.7-2,1.1C5,18.1,4.8,18,4.5,18
	C4.4,18,4.2,18,4.1,18.1z M19.9,5.9c1.1,1.4,1.7,3,2,4.7c-0.4,0.2-0.7,0.5-0.8,0.9H18c-0.1-1.5-0.5-3.1-1.2-4.6
	c0.7-0.3,1.3-0.7,2-1.1C19,5.9,19.2,6,19.5,6C19.6,6,19.8,6,19.9,5.9z M12.6,21.1h-0.1v-3.2c0.4-0.1,0.7-0.4,0.9-0.8
	c0.7,0.1,1.3,0.3,2,0.5C14.7,18.8,13.8,20,12.6,21.1z M11.4,21.1c-1.1-1.2-2-2.4-2.7-3.5c0.7-0.2,1.3-0.4,2-0.5
	c0.2,0.4,0.5,0.6,0.9,0.8v3.2C11.5,21.1,11.4,21.1,11.4,21.1z M11.4,2.9c0,0,0.1,0,0.1,0.1v4c-0.7,0-1.3-0.2-2-0.3V6.6
	c0-0.3-0.1-0.7-0.3-0.9C9.8,4.7,10.5,3.8,11.4,2.9z M12.6,2.9c1.1,1.2,2,2.4,2.7,3.5c-0.9,0.3-1.9,0.5-2.8,0.6V2.9H12.6z M8.5,6.5
	C8.5,6.8,8.3,7,8,7S7.5,6.8,7.5,6.5S7.7,6,8,6S8.5,6.2,8.5,6.5z M8,8c0.4,0,0.8-0.2,1-0.4C9.8,7.8,10.6,8,11.5,8v3.5H7
	C7.1,10.3,7.4,9.2,8,8L8,8z M11.5,12.5v2.6c-0.5,0.2-0.8,0.6-1,1c-0.8,0.1-1.6,0.3-2.4,0.6c-0.7-1.4-1.1-2.8-1.2-4.2L11.5,12.5z
	 M12,17c-0.3,0-0.5-0.2-0.5-0.5S11.7,16,12,16s0.5,0.2,0.5,0.5S12.3,17,12,17z M13.4,16.1c-0.1-0.5-0.5-0.9-0.9-1v-2.6H17
	c-0.1,1.4-0.4,2.8-1.1,4.2C15,16.4,14.2,16.2,13.4,16.1z M12.5,11.5V8c1.1-0.1,2.2-0.3,3.3-0.7c0.7,1.4,1.1,2.8,1.1,4.2H12.5z
	 M18.1,5c-0.6,0.4-1.2,0.7-1.8,1c-0.7-1.3-1.7-2.6-2.9-3.9l0,0c1.7,0.2,3.3,0.9,4.7,2C18,4.2,18,4.4,18,4.5C18,4.7,18,4.9,18.1,5z
	 M10.7,2.2C9.7,3.1,9,4.1,8.3,5C8.2,5,8.1,5,8,5C7.5,5,7.1,5.2,6.8,5.6c-0.5-0.3-1-0.6-1.6-1C6.7,3.3,8.6,2.4,10.7,2.2
	C10.6,2.1,10.6,2.1,10.7,2.2z M6.5,6.5c0,0.4,0.2,0.8,0.5,1c-0.6,1.4-0.9,2.7-1,4H2.9c-0.1-0.4-0.4-0.7-0.8-0.9
	c0.3-2,1.2-3.8,2.5-5.3C5.2,5.8,5.8,6.2,6.5,6.5z M5.9,19c0.6-0.4,1.2-0.7,1.8-1c0.7,1.3,1.7,2.6,2.9,3.9l0,0
	c-1.7-0.2-3.3-0.9-4.7-2C6,19.8,6,19.6,6,19.5C6,19.3,6,19.1,5.9,19z M13.3,21.8c1.2-1.3,2.2-2.6,2.9-3.9c0.8,0.4,1.6,0.8,2.5,1.4
	C17.3,20.7,15.4,21.6,13.3,21.8C13.4,21.9,13.4,21.9,13.3,21.8z M16.8,17.1c0.7-1.5,1.1-3.1,1.2-4.6h3.1c0.1,0.4,0.4,0.7,0.8,0.9
	c-0.3,2-1.2,3.8-2.5,5.3C18.6,18,17.7,17.5,16.8,17.1z M19.5,4C19.8,4,20,4.2,20,4.5S19.8,5,19.5,5S19,4.8,19,4.5S19.2,4,19.5,4z
	 M12,1c0.3,0,0.5,0.2,0.5,0.5S12.3,2,12,2s-0.5-0.2-0.5-0.5S11.7,1,12,1z M1.5,11.5C1.8,11.5,2,11.7,2,12s-0.2,0.5-0.5,0.5
	S1,12.3,1,12S1.2,11.5,1.5,11.5z M4.5,20C4.2,20,4,19.8,4,19.5S4.2,19,4.5,19S5,19.2,5,19.5S4.8,20,4.5,20z M12,23
	c-0.3,0-0.5-0.2-0.5-0.5S11.7,22,12,22s0.5,0.2,0.5,0.5S12.3,23,12,23z M22.5,12.5c-0.3,0-0.5-0.2-0.5-0.5s0.2-0.5,0.5-0.5
	S23,11.7,23,12S22.8,12.5,22.5,12.5z"/>
</svg>
