<?xml version="1.0" encoding="utf-8"?>
<!-- Generator: Adobe Illustrator 24.0.2, SVG Export Plug-In . SVG Version: 6.00 Build 0)  -->
<svg version="1.1" id="Слой_1" xmlns="http://www.w3.org/2000/svg" xmlns:xlink="http://www.w3.org/1999/xlink" x="0px" y="0px"
	 viewBox="0 0 100 125" style="enable-background:new 0 0 100 125;" xml:space="preserve">
<style type="text/css">
	.st0{display:none;}
	.st1{display:inline;stroke:#FFFFFF;stroke-width:3;stroke-miterlimit:10;}
	.st2{fill:#FFFFFF;}
</style>
<g class="st0">
	<path class="st1" d="M93,37.5L45.5,11.2c-0.8-0.4-1.7-0.4-2.4,0L-4.5,37.5c-0.8,0.4-1.3,1.3-1.3,2.2c0,0.9,0.5,1.8,1.3,2.2
		l13.7,7.5l5,2.8l3.9,2.1l5,2.8L43,68c0.4,0.2,0.8,0.3,1.2,0.3s0.8-0.1,1.2-0.3l28.8-15.9l5-2.8L93,41.8c0.8-0.4,1.3-1.3,1.3-2.2
		C94.3,38.7,93.8,37.9,93,37.5z M44.3,63L25.2,52.5L20,49.6l-18-9.9l42.3-23.4l42.3,23.4L44.3,63z"/>
	<path class="st1" d="M11.8,63c-1.4,0-2.5-1.1-2.5-2.5V49.3c0-1.4,1.1-2.5,2.5-2.5s2.5,1.1,2.5,2.5v11.1C14.3,61.9,13.1,63,11.8,63z
		"/>
	<path class="st1" d="M76.8,63c-1.4,0-2.5-1.1-2.5-2.5V49.3c0-1.4,1.1-2.5,2.5-2.5s2.5,1.1,2.5,2.5v11.1C79.3,61.9,78.1,63,76.8,63z
		"/>
	<path class="st1" d="M44.3,85.8c-19.3,0-35-10.9-35-24.2c0-1.4,1.1-2.5,2.5-2.5s2.5,1.1,2.5,2.5c0,10.6,13.5,19.2,30,19.2
		s30-8.6,30-19.2c0-1.4,1.1-2.5,2.5-2.5s2.5,1.1,2.5,2.5C79.3,74.9,63.5,85.8,44.3,85.8z"/>
	<path class="st1" d="M21,54.4c-0.9,0-1.8-0.5-2.2-1.3c-0.6-1.2-0.2-2.7,1-3.4l23.1-12.3c1.2-0.6,2.7-0.2,3.4,1
		c0.6,1.2,0.2,2.7-1,3.4L22.2,54.1C21.8,54.3,21.4,54.4,21,54.4z"/>
	<path class="st1" d="M20.6,93.5c-1.4,0-2.5-1.1-2.5-2.5V53.2c0-1.4,1.1-2.5,2.5-2.5s2.5,1.1,2.5,2.5V91
		C23.1,92.4,22,93.5,20.6,93.5z"/>
	<path class="st1" d="M23.1,89.2c-0.8-0.3-1.6-0.4-2.5-0.4c-0.9,0-1.7,0.2-2.5,0.4c-3,1-5.1,3.9-5.1,7.2v6.8c0,1.4,1.1,2.5,2.5,2.5
		h10.3c1.4,0,2.5-1.1,2.5-2.5v-6.8C28.3,93,26.1,90.2,23.1,89.2z M23.3,100.6H18v-4.3c0-1.5,1.2-2.6,2.6-2.6c1.5,0,2.6,1.2,2.6,2.6
		V100.6z"/>
</g>
<g>
	<g>
		<path class="st2" d="M50.3,64.7L31.2,54.2l-0.5-0.3l-1-0.6l-0.5-0.3c0-0.4-0.1-0.7-0.3-1l0.8-0.4l0.5-0.3l1.1-0.6l19.4-10.3
			c0.2-0.1,0.4-0.3,0.5-0.6c0.1-0.3,0-0.5-0.1-0.8c-0.2-0.3-0.5-0.5-0.9-0.5c-0.1,0-0.3,0-0.5,0.1L29.1,49.7l-0.4,0.2l-1.2,0.6
			l-0.6,0.3c-0.1,0-0.2,0-0.3,0c-0.4,0-0.8,0.1-1.2,0.3l-0.7-0.4L24,50.3L23.5,50l-1.8-1l-1.9-1.1c0.3,0.4,0.5,0.9,0.5,1.4v1.1
			l1.5,0.8l1.1,0.6L23,52l1.2,0.7l0.5,0.3c0,0,0,0.1,0.1,0.1c0.2,0.4,0.5,0.7,0.8,0.9v-0.5l1.7,0.9l0.3,0.2l1.5,0.8l0,0l1.5,0.8
			l19.1,10.5c0.3,0.2,0.7,0.2,1,0l28-15.4v-1.9c0-0.1,0-0.3,0-0.4L50.3,64.7z M26.6,50.8c-0.4,0-0.8,0.1-1.2,0.3l0.7,0.4
			c0.1-0.2,0.2-0.3,0.4-0.4l0.4-0.2C26.8,50.8,26.7,50.8,26.6,50.8z M27.5,50.5l-0.6,0.3c-0.1,0-0.2,0-0.3,0c-0.4,0-0.8,0.1-1.2,0.3
			l-0.7-0.4L24,50.3L23.5,50l-1.8-1l-1.9-1.1c0.3,0.4,0.5,0.9,0.5,1.4v1.1l1.5,0.8l1.1,0.6L23,52l1.2,0.7l0.5,0.3c0,0,0,0.1,0.1,0.1
			c0.2,0.4,0.5,0.7,0.8,0.9v-0.7c0-0.4,0.2-0.7,0.5-0.9c0,0,0,0,0,0C26,52.1,26,51.9,26,51.6c0-0.1,0.1-0.1,0.1-0.2l1.9,1.1l0.8-0.4
			l0.8-0.4L27.5,50.5z M50.3,64.7L31.2,54.2l-0.5-0.3l-1-0.6l-0.5-0.3c0-0.4-0.1-0.7-0.3-1l0.8-0.4l-2.1-1.1l-0.6,0.3
			c-0.1,0-0.2,0-0.3,0c-0.4,0-0.8,0.1-1.2,0.3l-0.7-0.4L24,50.3L23.5,50l-1.8-1l-1.9-1.1c0.3,0.4,0.5,0.9,0.5,1.4v1.1l1.5,0.8
			l1.1,0.6L23,52l1.2,0.7l0.5,0.3c0,0,0,0.1,0.1,0.1c0.2,0.4,0.5,0.7,0.8,0.9v-0.5l1.7,0.9l0.3,0.2l1.5,0.8l0,0l1.5,0.8l19.1,10.5
			c0.3,0.2,0.7,0.2,1,0l28-15.4v-1.9c0-0.1,0-0.3,0-0.4L50.3,64.7z M50.3,64.7L31.2,54.2l-0.5-0.3l-1-0.6l-0.5-0.3
			c0-0.4-0.1-0.7-0.3-1l0.8-0.4l-2.1-1.1l-0.6,0.3c-0.1,0-0.2,0-0.3,0c-0.4,0-0.8,0.1-1.2,0.3l-0.7-0.4L24,50.3L23.5,50l-1.8-1
			l-1.9-1.1c0.3,0.4,0.5,0.9,0.5,1.4v1.1l1.5,0.8l1.1,0.6L23,52l1.2,0.7l0.5,0.3c0,0,0,0.1,0.1,0.1c0.2,0.4,0.5,0.7,0.8,0.9v-0.5
			l1.7,0.9l0.3,0.2l1.5,0.8l0,0l1.5,0.8l19.1,10.5c0.3,0.2,0.7,0.2,1,0l28-15.4v-1.9c0-0.1,0-0.3,0-0.4L50.3,64.7z M50.3,64.7
			L31.2,54.2l-0.5-0.3l-1-0.6l-0.5-0.3c0-0.4-0.1-0.7-0.3-1l0.8-0.4l-2.1-1.1l-0.6,0.3c-0.1,0-0.2,0-0.3,0c-0.4,0-0.8,0.1-1.2,0.3
			l-0.7-0.4L24,50.3L23.5,50l-1.8-1l-1.9-1.1c0.3,0.4,0.5,0.9,0.5,1.4v1.1l1.5,0.8l1.1,0.6L23,52l1.2,0.7l0.5,0.3c0,0,0,0.1,0.1,0.1
			c0.2,0.4,0.5,0.7,0.8,0.9v-0.5l1.7,0.9l0.3,0.2l1.5,0.8l0,0l1.5,0.8l19.1,10.5c0.3,0.2,0.7,0.2,1,0l28-15.4v-1.9
			c0-0.1,0-0.3,0-0.4L50.3,64.7z M50.3,64.7L31.2,54.2l-0.5-0.3l-1-0.6l-0.5-0.3c0-0.4-0.1-0.7-0.3-1l0.8-0.4l-2.1-1.1l-0.6,0.3
			c-0.1,0-0.2,0-0.3,0c-0.4,0-0.8,0.1-1.2,0.3l-0.7-0.4L24,50.3L23.5,50l-1.8-1l-1.9-1.1c0.3,0.4,0.5,0.9,0.5,1.4v1.1l1.5,0.8
			l1.1,0.6L23,52l1.2,0.7l0.5,0.3c0,0,0,0.1,0.1,0.1c0.2,0.4,0.5,0.7,0.8,0.9v-0.5l1.7,0.9l0.3,0.2l1.5,0.8l0,0l1.5,0.8l19.1,10.5
			c0.3,0.2,0.7,0.2,1,0l28-15.4v-1.9c0-0.1,0-0.3,0-0.4L50.3,64.7z M50.3,64.7L31.2,54.2l-0.5-0.3l-1-0.6l-0.5-0.3
			c0-0.4-0.1-0.7-0.3-1l0.8-0.4l-2.1-1.1l-0.6,0.3c-0.1,0-0.2,0-0.3,0c-0.4,0-0.8,0.1-1.2,0.3l-0.7-0.4L24,50.3L23.5,50l-1.8-1
			l-1.9-1.1c0.3,0.4,0.5,0.9,0.5,1.4v1.1l1.5,0.8l1.1,0.6L23,52l1.2,0.7l0.5,0.3c0,0,0,0.1,0.1,0.1c0.2,0.4,0.5,0.7,0.8,0.9v-0.5
			l1.7,0.9l0.3,0.2l1.5,0.8l0,0l1.5,0.8l19.1,10.5c0.3,0.2,0.7,0.2,1,0l28-15.4v-1.9c0-0.1,0-0.3,0-0.4L50.3,64.7z M50.3,64.7
			L31.2,54.2l-0.5-0.3l-1-0.6l-0.5-0.3c0-0.4-0.1-0.7-0.3-1l0.8-0.4l-2.1-1.1l-0.6,0.3c-0.1,0-0.2,0-0.3,0c-0.4,0-0.8,0.1-1.2,0.3
			l-0.7-0.4L24,50.3L23.5,50l-1.8-1l-1.9-1.1c0.3,0.4,0.5,0.9,0.5,1.4v1.1l1.5,0.8l1.1,0.6L23,52l1.2,0.7l0.5,0.3c0,0,0,0.1,0.1,0.1
			c0.2,0.4,0.5,0.7,0.8,0.9v-0.5l1.7,0.9l0.3,0.2l1.5,0.8l0,0l1.5,0.8l19.1,10.5c0.3,0.2,0.7,0.2,1,0l28-15.4v-1.9
			c0-0.1,0-0.3,0-0.4L50.3,64.7z M51,39.2c-0.2-0.3-0.5-0.5-0.9-0.5c-0.1,0-0.3,0-0.5,0.1L29.1,49.7l-0.4,0.2l-1.2,0.6l-0.6,0.3
			L26.5,51c-0.2,0.1-0.3,0.2-0.4,0.4l1.9,1.1l0.8-0.4l0.8-0.4l0.5-0.3l1.1-0.6l19.4-10.3c0.2-0.1,0.4-0.3,0.5-0.6
			C51.2,39.7,51.1,39.4,51,39.2z M98.2,38.8L50.7,12.6c-0.1-0.1-0.3-0.1-0.5-0.1s-0.3,0-0.5,0.1L2.3,38.8C2,39,1.8,39.3,1.8,39.7
			c0,0.4,0.2,0.7,0.5,0.9l12.1,6.7l1.3,0.7l1.3,0.7c-0.2,0.2-0.3,0.4-0.3,0.7v0.9l2,1.1v-1.7l3,1.7l1.1,0.6L23,52l1.2,0.7l0.5,0.3
			c0,0,0,0.1,0.1,0.1c0.2,0.4,0.5,0.7,0.8,0.9v1.2l1.4,0.8h0l0.6,0.4v-1.7l1.5,0.8l0,0l1.5,0.8l19.1,10.5c0.3,0.2,0.7,0.2,1,0
			l28-15.4l3-1.7v1.7l2-1.1v-0.9c0-0.3-0.1-0.5-0.3-0.7l1.3-0.7l1.3-0.7l12.1-6.7c0.3-0.2,0.5-0.5,0.5-0.9
			C98.8,39.3,98.5,39,98.2,38.8z M84.6,45.8l-1.9,1.1l0,0c-0.8,0-1.5,0.4-1.9,1.1L78.8,49L50.3,64.7L31.2,54.2l-0.5-0.3l-1-0.6
			l-0.5-0.3c0-0.4-0.1-0.7-0.3-1l0.8-0.4l0.5-0.3l1.1-0.6l19.4-10.3c0.2-0.1,0.4-0.3,0.5-0.6c0.1-0.3,0-0.5-0.1-0.8
			c-0.2-0.3-0.5-0.5-0.9-0.5c-0.1,0-0.3,0-0.5,0.1L29.1,49.7l-0.4,0.2l-1.2,0.6l-0.6,0.3c-0.1,0-0.2,0-0.3,0c-0.4,0-0.8,0.1-1.2,0.3
			l-0.7-0.4L24,50.3L23.5,50l-1.8-1l-1.9-1.1l-1.9-1.1l-1.9-1.1L4.8,39.7l45.4-25.1l45.4,25.1L84.6,45.8z M51,39.2
			c-0.2-0.3-0.5-0.5-0.9-0.5c-0.1,0-0.3,0-0.5,0.1L29.1,49.7l-0.4,0.2l-1.2,0.6l-0.6,0.3L26.5,51c-0.2,0.1-0.3,0.2-0.4,0.4l1.9,1.1
			l0.8-0.4l0.8-0.4l0.5-0.3l1.1-0.6l19.4-10.3c0.2-0.1,0.4-0.3,0.5-0.6C51.2,39.7,51.1,39.4,51,39.2z M50.3,64.7L31.2,54.2l-0.5-0.3
			l-1-0.6l-0.5-0.3c0-0.4-0.1-0.7-0.3-1l0.8-0.4l-2.1-1.1l-0.6,0.3c-0.1,0-0.2,0-0.3,0c-0.4,0-0.8,0.1-1.2,0.3l-0.7-0.4L24,50.3
			L23.5,50l-1.8-1l-1.9-1.1c0.3,0.4,0.5,0.9,0.5,1.4v1.1l1.5,0.8l1.1,0.6L23,52l1.2,0.7l0.5,0.3c0,0,0,0.1,0.1,0.1
			c0.2,0.4,0.5,0.7,0.8,0.9v-0.5l1.7,0.9l0.3,0.2l1.5,0.8l0,0l1.5,0.8l19.1,10.5c0.3,0.2,0.7,0.2,1,0l28-15.4v-1.9
			c0-0.1,0-0.3,0-0.4L50.3,64.7z M50.3,64.7L31.2,54.2l-0.5-0.3l-1-0.6l-0.5-0.3c0-0.4-0.1-0.7-0.3-1l0.8-0.4l-2.1-1.1l-0.6,0.3
			c-0.1,0-0.2,0-0.3,0c-0.4,0-0.8,0.1-1.2,0.3l-0.7-0.4L24,50.3L23.5,50l-1.8-1l-1.9-1.1c0.3,0.4,0.5,0.9,0.5,1.4v1.1l1.5,0.8
			l1.1,0.6L23,52l1.2,0.7l0.5,0.3c0,0,0,0.1,0.1,0.1c0.2,0.4,0.5,0.7,0.8,0.9v-0.5l1.7,0.9l0.3,0.2l1.5,0.8l0,0l1.5,0.8l19.1,10.5
			c0.3,0.2,0.7,0.2,1,0l28-15.4v-1.9c0-0.1,0-0.3,0-0.4L50.3,64.7z M50.3,64.7L31.2,54.2l-0.5-0.3l-1-0.6l-0.5-0.3
			c0-0.4-0.1-0.7-0.3-1l0.8-0.4l-2.1-1.1l-0.6,0.3c-0.1,0-0.2,0-0.3,0c-0.4,0-0.8,0.1-1.2,0.3l-0.7-0.4L24,50.3L23.5,50l-1.8-1
			l-1.9-1.1c0.3,0.4,0.5,0.9,0.5,1.4v1.1l1.5,0.8l1.1,0.6L23,52l1.2,0.7l0.5,0.3c0,0,0,0.1,0.1,0.1c0.2,0.4,0.5,0.7,0.8,0.9v-0.5
			l1.7,0.9l0.3,0.2l1.5,0.8l0,0l1.5,0.8l19.1,10.5c0.3,0.2,0.7,0.2,1,0l28-15.4v-1.9c0-0.1,0-0.3,0-0.4L50.3,64.7z M50.3,64.7
			L31.2,54.2l-0.5-0.3l-1-0.6l-0.5-0.3c0-0.4-0.1-0.7-0.3-1l0.8-0.4l-2.1-1.1l-0.6,0.3c-0.1,0-0.2,0-0.3,0c-0.4,0-0.8,0.1-1.2,0.3
			l-0.7-0.4L24,50.3L23.5,50l-1.8-1l-1.9-1.1c0.3,0.4,0.5,0.9,0.5,1.4v1.1l1.5,0.8l1.1,0.6L23,52l1.2,0.7l0.5,0.3c0,0,0,0.1,0.1,0.1
			c0.2,0.4,0.5,0.7,0.8,0.9v-0.5l1.7,0.9l0.3,0.2l1.5,0.8l0,0l1.5,0.8l19.1,10.5c0.3,0.2,0.7,0.2,1,0l28-15.4v-1.9
			c0-0.1,0-0.3,0-0.4L50.3,64.7z M50.3,64.7L31.2,54.2l-0.5-0.3l-1-0.6l-0.5-0.3c0-0.4-0.1-0.7-0.3-1l0.8-0.4l-2.1-1.1l-0.6,0.3
			c-0.1,0-0.2,0-0.3,0c-0.4,0-0.8,0.1-1.2,0.3l-0.7-0.4L24,50.3L23.5,50l-1.8-1l-1.9-1.1c0.3,0.4,0.5,0.9,0.5,1.4v1.1l1.5,0.8
			l1.1,0.6L23,52l1.2,0.7l0.5,0.3c0,0,0,0.1,0.1,0.1c0.2,0.4,0.5,0.7,0.8,0.9v-0.5l1.7,0.9l0.3,0.2l1.5,0.8l0,0l1.5,0.8l19.1,10.5
			c0.3,0.2,0.7,0.2,1,0l28-15.4v-1.9c0-0.1,0-0.3,0-0.4L50.3,64.7z M50.3,64.7L31.2,54.2l-0.5-0.3l-1-0.6l-0.5-0.3
			c0-0.4-0.1-0.7-0.3-1l0.8-0.4l-2.1-1.1l-0.6,0.3c-0.1,0-0.2,0-0.3,0c-0.4,0-0.8,0.1-1.2,0.3l-0.7-0.4L24,50.3L23.5,50l-1.8-1
			l-1.9-1.1c0.3,0.4,0.5,0.9,0.5,1.4v1.1l1.5,0.8l1.1,0.6L23,52l1.2,0.7l0.5,0.3c0,0,0,0.1,0.1,0.1c0.2,0.4,0.5,0.7,0.8,0.9v-0.5
			l1.7,0.9l0.3,0.2l1.5,0.8l0,0l1.5,0.8l19.1,10.5c0.3,0.2,0.7,0.2,1,0l28-15.4v-1.9c0-0.1,0-0.3,0-0.4L50.3,64.7z M27.5,50.5
			l-0.6,0.3c-0.1,0-0.2,0-0.3,0c-0.4,0-0.8,0.1-1.2,0.3l-0.7-0.4L24,50.3L23.5,50l-1.8-1l-1.9-1.1c0.3,0.4,0.5,0.9,0.5,1.4v1.1
			l1.5,0.8l1.1,0.6L23,52l1.2,0.7l0.5,0.3c0,0,0,0.1,0.1,0.1c0.2,0.4,0.5,0.7,0.8,0.9v-0.7c0-0.4,0.2-0.7,0.5-0.9c0,0,0,0,0,0
			C26,52.1,26,51.9,26,51.6c0-0.1,0.1-0.1,0.1-0.2l1.9,1.1l0.8-0.4l0.8-0.4L27.5,50.5z M26.6,50.8c-0.4,0-0.8,0.1-1.2,0.3l-0.7-0.4
			L24,50.3L23.5,50l-1.8-1c0,0.1,0,0.3,0,0.4v1.9l1.1,0.6L23,52l1.2,0.7l0.5,0.3c0,0,0,0.1,0.1,0.1c0.2,0.4,0.5,0.7,0.8,0.9v-0.7
			c0-0.4,0.2-0.7,0.5-0.9c0,0,0,0,0,0C26,52.1,26,51.9,26,51.6c0-0.1,0.1-0.1,0.1-0.2c0.1-0.2,0.2-0.3,0.4-0.4l0.4-0.2
			C26.8,50.8,26.7,50.8,26.6,50.8z"/>
		<path class="st2" d="M29.1,49.7l-0.4,0.2l-1.2,0.6l-0.6,0.3c-0.1,0-0.2,0-0.3,0c-0.4,0-0.8,0.1-1.2,0.3l0.7,0.4l1.9,1.1l1.1,0.6
			c0-0.4-0.1-0.7-0.3-1l0.8-0.4l0.5-0.3l1.1-0.6L29.1,49.7z M80.7,47.9l1.9-1.1C81.8,46.9,81.1,47.3,80.7,47.9z M29.1,49.7l-0.4,0.2
			l-1.2,0.6l-0.6,0.3L26.5,51c-0.2,0.1-0.3,0.2-0.4,0.4l1.9,1.1l1.1,0.6c0-0.4-0.1-0.7-0.3-1l0.8-0.4l0.5-0.3l1.1-0.6L29.1,49.7z
			 M80.7,47.9l1.9-1.1C81.8,46.9,81.1,47.3,80.7,47.9z M83.5,48.7l-1.7,0.9v3.4l2-1.1v-2.6C83.8,49.1,83.6,48.9,83.5,48.7z
			 M27.3,54.4l-1.7-0.9l-0.9-0.5c0,0,0,0.1,0.1,0.1c0.2,0.4,0.5,0.7,0.8,0.9v2.9l2,1.1v-3.4L27.3,54.4z M29.1,49.7l-0.4,0.2
			l-1.2,0.6l-0.6,0.3L26.5,51c-0.2,0.1-0.3,0.2-0.4,0.4l1.9,1.1l1.1,0.6c0-0.4-0.1-0.7-0.3-1l0.8-0.4l0.5-0.3l1.1-0.6L29.1,49.7z
			 M80.7,47.9l1.9-1.1C81.8,46.9,81.1,47.3,80.7,47.9z M17,48.7c-0.2,0.2-0.3,0.4-0.3,0.7V52l2,1.1v-3.4L17,48.7z M29.1,49.7
			l-0.4,0.2l-1.2,0.6l-0.6,0.3c-0.1,0-0.2,0-0.3,0c-0.4,0-0.8,0.1-1.2,0.3l0.7,0.4l1.9,1.1l1.1,0.6c0-0.4-0.1-0.7-0.3-1l0.8-0.4
			l0.5-0.3l1.1-0.6L29.1,49.7z M80.7,47.9l1.9-1.1C81.8,46.9,81.1,47.3,80.7,47.9z M24.7,52.9c0,0,0,0.1,0.1,0.1
			c0.2,0.4,0.5,0.7,0.8,0.9v-0.5L24.7,52.9z M29.1,49.7l-0.4,0.2l-1.2,0.6l-0.6,0.3c-0.1,0-0.2,0-0.3,0c-0.4,0-0.8,0.1-1.2,0.3
			l0.7,0.4l1.9,1.1l1.1,0.6c0-0.4-0.1-0.7-0.3-1l0.8-0.4l0.5-0.3l1.1-0.6L29.1,49.7z M80.7,47.9l1.9-1.1
			C81.8,46.9,81.1,47.3,80.7,47.9z M24.7,52.9c0,0,0,0.1,0.1,0.1c0.2,0.4,0.5,0.7,0.8,0.9v-0.5L24.7,52.9z M29.1,49.7l-0.4,0.2
			l-1.2,0.6l-0.6,0.3c-0.1,0-0.2,0-0.3,0c-0.4,0-0.8,0.1-1.2,0.3l0.7,0.4l1.9,1.1l1.1,0.6c0-0.4-0.1-0.7-0.3-1l0.8-0.4l0.5-0.3
			l1.1-0.6L29.1,49.7z M80.7,47.9l1.9-1.1C81.8,46.9,81.1,47.3,80.7,47.9z"/>
	</g>
	<g>
		<path class="st2" d="M18.8,60.5c0,0.2-0.1,0.4-0.2,0.5c0.1,0.1,0.2,0.3,0.2,0.5c0,0.4,0,0.8,0,1.2c-0.3,0.2-0.7,0.2-1,0.2
			c-0.3,0-0.7-0.1-1-0.2c0-0.4,0-0.8,0-1.3c0-0.2,0.1-0.4,0.2-0.5c-0.1-0.2-0.2-0.3-0.2-0.5V49.4c0-0.3,0.1-0.5,0.3-0.7L15.7,48
			c0.4-0.7,1.2-1.1,2-1.1h0.1l1.9,1.1c0.3,0.4,0.5,0.9,0.5,1.4v1.1l-1.5-0.8V60.5z"/>
		<path class="st2" d="M21.7,49l-1.9-1.1l-1.9-1.1l-1.9-1.1c-0.6,0.3-1.2,0.8-1.6,1.4l1.3,0.7l1.3,0.7c0.2-0.2,0.4-0.3,0.7-0.3
			c0.5,0,1,0.4,1,1v0.3l3,1.7v-1.9C21.8,49.3,21.7,49.1,21.7,49z M18.8,62.8c0-0.4,0-0.8,0-1.2c0-0.2-0.1-0.4-0.2-0.5
			c-0.2,0.3-0.5,0.5-0.8,0.5s-0.7-0.2-0.8-0.5c-0.1,0.1-0.2,0.3-0.2,0.5c0,0.4,0,0.8,0,1.3c0,0.6,0.1,1.1,0.2,1.6
			c0.2,0.1,0.5,0.1,0.7,0.1c0.4,0,0.9-0.1,1.3-0.2C18.9,63.8,18.8,63.3,18.8,62.8z"/>
	</g>
	<g>
		<path class="st2" d="M83.5,48.7c0.2,0.2,0.3,0.4,0.3,0.7v11.1c0,0.2-0.1,0.4-0.2,0.5c0.1,0.1,0.2,0.3,0.2,0.5c0,0.4,0,0.8,0,1.3
			c-0.3,0.1-0.6,0.2-1,0.2c-0.4,0-0.7-0.1-1-0.2c0-0.4,0-0.8,0-1.2c0-0.2,0.1-0.4,0.2-0.5c-0.1-0.2-0.2-0.3-0.2-0.5V49.6l-1.5,0.8
			v-1.1c0-0.5,0.2-1,0.5-1.4c0.4-0.6,1.1-1,1.9-1.1l0,0h0.1c0.8,0,1.6,0.4,2,1.1L83.5,48.7z"/>
		<path class="st2" d="M84.6,45.8l-1.9,1.1l0,0c-0.8,0-1.5,0.4-1.9,1.1L78.8,49c0,0.1,0,0.3,0,0.4v1.9l3-1.7v-0.3c0-0.6,0.5-1,1-1
			c0.3,0,0.5,0.1,0.7,0.3l1.3-0.7l1.3-0.7C85.7,46.6,85.2,46.1,84.6,45.8z M83.6,61.1c-0.2,0.3-0.5,0.5-0.8,0.5s-0.7-0.2-0.8-0.5
			c-0.1,0.1-0.2,0.3-0.2,0.5c0,0.4,0,0.8,0,1.2c0,0.5-0.1,1-0.2,1.5c0.4,0.1,0.8,0.2,1.3,0.2c0.3,0,0.5,0,0.7-0.1
			c0.1-0.5,0.2-1.1,0.2-1.6c0-0.4,0-0.8,0-1.3C83.8,61.4,83.7,61.2,83.6,61.1z"/>
	</g>
	<g>
		<path class="st2" d="M83.8,60.5c0,0.2-0.1,0.4-0.2,0.5c0.1,0.1,0.2,0.3,0.2,0.5c0,0.4,0,0.8,0,1.3c0,0.6-0.1,1.1-0.2,1.6
			c-2.1,11.2-16.2,19.9-33.2,19.9c-7.3,0-14.1-1.6-19.6-4.3c-0.5-0.3-1-0.5-1.5-0.8c-0.5-0.3-1-0.6-1.5-0.9v1.7
			c-0.7-0.4-1.4-0.8-2-1.3V77c-0.5-0.4-1-0.8-1.5-1.2c-0.5-0.4-1-0.9-1.5-1.4c-3-2.9-4.9-6.3-5.6-10c-0.1-0.5-0.2-1.1-0.2-1.6
			c0-0.4,0-0.8,0-1.3c0-0.2,0.1-0.4,0.2-0.5c-0.1-0.2-0.2-0.3-0.2-0.5v-1.2c0.3-0.1,0.7-0.2,1-0.2s0.7,0.1,1,0.2v1.2
			c0,0.2-0.1,0.4-0.2,0.5c0.1,0.1,0.2,0.3,0.2,0.5c0,0.4,0,0.8,0,1.2c0,0.5,0.1,1,0.2,1.5c0.5,2.6,1.8,5,3.6,7.2
			c0.5,0.6,1,1.1,1.5,1.6c0.5,0.5,1,0.9,1.5,1.3v-1.9c0.6,0.6,1.3,1.1,2,1.6V76c0.5,0.3,1,0.6,1.5,1c0.5,0.3,1,0.6,1.5,0.8
			c5.4,2.8,12.2,4.5,19.6,4.5c16,0,29.2-7.9,31.2-18c0.1-0.5,0.2-1,0.2-1.5c0-0.4,0-0.8,0-1.2c0-0.2,0.1-0.4,0.2-0.5
			c-0.1-0.2-0.2-0.3-0.2-0.5v-1.2c0.3-0.1,0.7-0.2,1-0.2s0.7,0.1,1,0.2V60.5z"/>
		<path class="st2" d="M25.6,70.5v4c0.6,0.5,1.3,1,2,1.5v-3.6C26.9,71.8,26.2,71.2,25.6,70.5z M25.6,70.5v4c0.6,0.5,1.3,1,2,1.5
			v-3.6C26.9,71.8,26.2,71.2,25.6,70.5z"/>
		<path class="st2" d="M18.8,57.7v2.8c0,0.2-0.1,0.4-0.2,0.5c-0.2-0.3-0.5-0.5-0.8-0.5s-0.7,0.2-0.8,0.5c-0.1-0.2-0.2-0.3-0.2-0.5
			v-2.8c0.3-0.1,0.7-0.1,1-0.1S18.4,57.6,18.8,57.7z"/>
		<path class="st2" d="M27.6,78.4v3.4c-0.7-0.4-1.4-0.8-2-1.2V77C26.3,77.5,26.9,77.9,27.6,78.4z"/>
		<path class="st2" d="M83.8,57.7v2.8c0,0.2-0.1,0.4-0.2,0.5c-0.2-0.3-0.5-0.5-0.8-0.5s-0.7,0.2-0.8,0.5c-0.1-0.2-0.2-0.3-0.2-0.5
			v-2.8c0.3-0.1,0.7-0.1,1-0.1S83.4,57.6,83.8,57.7z"/>
	</g>
	<g>
		<path class="st2" d="M51.1,39.9c-0.1,0.3-0.3,0.5-0.5,0.6L31.2,50.8l-1.1,0.6l-0.5,0.3l-0.8,0.4c0.2,0.3,0.3,0.6,0.3,1l0.5,0.3
			l-0.5,0.3l-1,0.5c-0.2,0.1-0.4,0.2-0.5,0.2c-0.1,0-0.2,0-0.3,0c-0.1,0-0.2,0-0.3,0c-0.5,0-1-0.1-1.4-0.4c-0.3-0.2-0.6-0.5-0.8-0.9
			c0,0,0-0.1-0.1-0.1c-0.1-0.3-0.2-0.6-0.2-1c0-0.4,0.1-0.9,0.3-1.3l0.7,0.4c0.4-0.2,0.7-0.3,1.2-0.3c0.1,0,0.2,0,0.3,0l0.6-0.3
			l1.2-0.6l0.4-0.2l20.5-10.9c0.1-0.1,0.3-0.1,0.5-0.1c0.4,0,0.7,0.2,0.9,0.5C51.1,39.4,51.2,39.7,51.1,39.9z"/>
		<path class="st2" d="M30.6,53.9l-1-0.6l-0.5-0.3c0-0.4-0.1-0.7-0.3-1L28,52.5l-0.5,0.3l0,0c-0.5,0.2-1,0.1-1.3-0.4c0,0,0,0,0,0
			C26,52.1,26,51.9,26,51.6c0-0.1,0.1-0.1,0.1-0.2c0.1-0.2,0.2-0.3,0.4-0.4l0.4-0.2c-0.1,0-0.2,0-0.3,0c-0.4,0-0.8,0.1-1.2,0.3
			l-0.7-0.4L24,50.3L23.5,50c-0.1,0.2-0.2,0.5-0.3,0.8C23.1,51,23,51.3,23,51.6c0,0.1,0,0.3,0,0.4l1.2,0.7l0.5,0.3
			c0,0,0,0.1,0.1,0.1c0.2,0.4,0.5,0.7,0.8,0.9v1.7c0.4,0.2,0.9,0.3,1.4,0.3h0c0.2,0,0.4,0,0.6-0.1v-1.3l1.5,0.8l0,0l1.5-0.8l0.5-0.3
			L30.6,53.9z"/>
	</g>
	<g>
		<path class="st2" d="M29.1,53.3v2.1l0,0l-1.5-0.8V76c0.5,0.3,1,0.6,1.5,1v2.3c-0.5-0.3-1-0.6-1.5-0.9v12c0.5,0.1,1,0.2,1.5,0.4V91
			c0,0.7-0.3,1.3-0.7,1.7c-0.5-0.3-1.2-0.4-1.8-0.4c-0.7,0-1.3,0.2-1.8,0.4c-0.4-0.4-0.7-1-0.7-1.7v-0.2c0.5-0.2,1-0.4,1.5-0.4V77
			c-0.5-0.4-1-0.8-1.5-1.2v-2.7c0.5,0.5,1,0.9,1.5,1.3V54c-0.3-0.2-0.6-0.5-0.8-0.9c0,0,0-0.1-0.1-0.1l-0.5-0.3
			c0.1-0.2,0.2-0.5,0.3-0.7c0.2-0.4,0.6-0.7,1-0.9c0.4-0.2,0.7-0.3,1.2-0.3c0.1,0,0.2,0,0.3,0c0.8,0.1,1.5,0.6,1.9,1.3
			c0.2,0.3,0.3,0.6,0.3,1C29.1,53.2,29.1,53.2,29.1,53.3z"/>
		<path class="st2" d="M29.6,53.4l-0.5-0.3c0-0.4-0.1-0.7-0.3-1l0.8-0.4l0.5-0.3c-0.3-0.6-0.8-1.1-1.5-1.5l-1.2,0.6l-0.6,0.3
			c-0.1,0-0.2,0-0.3,0c-0.4,0-0.8,0.1-1.2,0.3l-0.7-0.4L24,50.3c-0.4,0.4-0.8,0.8-1,1.3c0,0.1-0.1,0.2-0.1,0.3L23,52l1.2,0.7
			l0.5,0.3c0,0,0,0.1,0.1,0.1c0.2,0.4,0.5,0.7,0.8,0.9v-0.7c0-0.4,0.2-0.7,0.5-0.9c0.1-0.1,0.3-0.1,0.5-0.1c0.4,0,0.7,0.2,0.9,0.5
			c0.1,0.2,0.1,0.3,0.1,0.5v1.3l1.5,0.8l0,0l1.5,0.8v-2.3L29.6,53.4z M29.1,77c-0.5-0.3-1-0.6-1.5-1v2.3c0.5,0.3,1,0.6,1.5,0.9
			c0.5,0.3,1,0.5,1.5,0.8v-2.2C30.1,77.5,29.6,77.3,29.1,77z M24.1,73.2c-0.5-0.5-1-1.1-1.5-1.6v2.9c0.5,0.5,1,0.9,1.5,1.4
			c0.5,0.4,1,0.8,1.5,1.2v-2.5C25.1,74.1,24.6,73.6,24.1,73.2z M29.1,90.8c-0.5-0.2-1-0.4-1.5-0.4V91c0,0.5-0.5,1-1,1
			c-0.6,0-1-0.5-1-1v-0.7c-0.5,0.1-1,0.2-1.5,0.4c-0.5,0.2-1,0.5-1.4,0.9c0.1,0.7,0.4,1.4,0.9,1.9c0.3-0.4,0.7-0.7,1.2-0.9
			c0.6-0.3,1.2-0.4,1.8-0.4c0.7,0,1.3,0.2,1.8,0.4c0.5,0.2,0.9,0.5,1.2,0.9c0.5-0.5,0.8-1.2,0.9-1.9C30.1,91.4,29.7,91.1,29.1,90.8z
			"/>
	</g>
	<g>
		<path class="st2" d="M30.6,91.7c-0.4-0.4-0.9-0.7-1.4-0.9c-0.5-0.2-1-0.4-1.5-0.4v-1.5c-0.3,0-0.7-0.1-1-0.1c-0.3,0-0.7,0-1,0.1
			v1.5c-0.5,0.1-1,0.2-1.5,0.4c-0.5,0.2-1,0.5-1.4,0.9c-1.3,1.1-2.2,2.8-2.2,4.7v6.8c0,0.5,0.5,1,1,1h10.3c0.5,0,1-0.5,1-1v-6.8
			C32.8,94.5,31.9,92.9,30.6,91.7z M30.8,102.2h-8.3v-5.8c0-1.1,0.4-2,1.1-2.8c0.3-0.4,0.7-0.7,1.2-0.9c0.6-0.3,1.2-0.4,1.8-0.4
			c0.7,0,1.3,0.2,1.8,0.4c0.5,0.2,0.9,0.5,1.2,0.9c0.7,0.7,1.1,1.7,1.1,2.8V102.2z"/>
		<path class="st2" d="M26.6,87.3c-0.3,0-0.7,0-1,0.1v3c0.3-0.1,0.7-0.1,1-0.1c0.3,0,0.7,0,1,0.1v-3C27.3,87.3,27,87.3,26.6,87.3z"
			/>
	</g>
</g>
</svg>
