<?xml version="1.0" encoding="utf-8"?>
<!-- Generator: Adobe Illustrator 24.0.2, SVG Export Plug-In . SVG Version: 6.00 Build 0)  -->
<svg version="1.1" id="Слой_1" xmlns="http://www.w3.org/2000/svg" xmlns:xlink="http://www.w3.org/1999/xlink" x="0px" y="0px"
	 viewBox="0 0 100 100.9" style="enable-background:new 0 0 100 100.9;" xml:space="preserve">
<style type="text/css">
	.st0{fill:#FFFFFF;}
</style>
<g>
	<path class="st0" d="M50.8,22.3c-4.8,0-8.6,3.9-8.6,8.7c-0.1,2.3,0.8,4.4,2.4,6c1.6,1.7,3.9,2.6,6.2,2.6c4.8,0,8.7-3.9,8.7-8.6
		C59.5,26.1,55.6,22.3,50.8,22.3z M50.8,37.3c-3.5,0-6.3-2.8-6.3-6.3s2.8-6.4,6.3-6.4s6.4,2.9,6.4,6.4C57,34.5,54.3,37.3,50.8,37.3z
		 M50.8,22.3c-4.8,0-8.6,3.9-8.6,8.7c-0.1,2.3,0.8,4.4,2.4,6c1.6,1.7,3.9,2.6,6.2,2.6c4.8,0,8.7-3.9,8.7-8.6
		C59.5,26.1,55.6,22.3,50.8,22.3z M50.8,37.3c-3.5,0-6.3-2.8-6.3-6.3s2.8-6.4,6.3-6.4s6.4,2.9,6.4,6.4C57,34.5,54.3,37.3,50.8,37.3z
		 M50.8,22.3c-4.8,0-8.6,3.9-8.6,8.7c-0.1,2.3,0.8,4.4,2.4,6c1.6,1.7,3.9,2.6,6.2,2.6c4.8,0,8.7-3.9,8.7-8.6
		C59.5,26.1,55.6,22.3,50.8,22.3z M50.8,37.3c-3.5,0-6.3-2.8-6.3-6.3s2.8-6.4,6.3-6.4s6.4,2.9,6.4,6.4C57,34.5,54.3,37.3,50.8,37.3z
		 M50.8,22.3c-4.8,0-8.6,3.9-8.6,8.7c-0.1,2.3,0.8,4.4,2.4,6c1.6,1.7,3.9,2.6,6.2,2.6c4.8,0,8.7-3.9,8.7-8.6
		C59.5,26.1,55.6,22.3,50.8,22.3z M50.8,37.3c-3.5,0-6.3-2.8-6.3-6.3s2.8-6.4,6.3-6.4s6.4,2.9,6.4,6.4C57,34.5,54.3,37.3,50.8,37.3z
		 M50.8,22.3c-4.8,0-8.6,3.9-8.6,8.7c-0.1,2.3,0.8,4.4,2.4,6c1.6,1.7,3.9,2.6,6.2,2.6c4.8,0,8.7-3.9,8.7-8.6
		C59.5,26.1,55.6,22.3,50.8,22.3z M50.8,37.3c-3.5,0-6.3-2.8-6.3-6.3s2.8-6.4,6.3-6.4s6.4,2.9,6.4,6.4C57,34.5,54.3,37.3,50.8,37.3z
		 M50.8,22.3c-4.8,0-8.6,3.9-8.6,8.7c-0.1,2.3,0.8,4.4,2.4,6c1.6,1.7,3.9,2.6,6.2,2.6c4.8,0,8.7-3.9,8.7-8.6
		C59.5,26.1,55.6,22.3,50.8,22.3z M50.8,37.3c-3.5,0-6.3-2.8-6.3-6.3s2.8-6.4,6.3-6.4s6.4,2.9,6.4,6.4C57,34.5,54.3,37.3,50.8,37.3z
		 M50.8,6c-13.8,0-25,11.2-25,25c0,20.1,22.3,40.2,23.2,41c0.5,0.5,1.2,0.6,1.7,0.6s1.2-0.1,1.7-0.6c1-0.9,23.2-21.1,23.2-41
		C75.8,17.1,64.6,6,50.8,6z M51,70.2l-0.2,0.1l-0.2-0.1c-0.2-0.2-22.5-20-22.5-39.3c0-12.4,10.2-22.6,22.6-22.6s22.5,10.1,22.5,22.6
		C73.3,49.8,51.2,70,51,70.2z M50.8,22.3c-4.8,0-8.6,3.9-8.6,8.7c-0.1,2.3,0.8,4.4,2.4,6c1.6,1.7,3.9,2.6,6.2,2.6
		c4.8,0,8.7-3.9,8.7-8.6C59.5,26.1,55.6,22.3,50.8,22.3z M50.8,37.3c-3.5,0-6.3-2.8-6.3-6.3s2.8-6.4,6.3-6.4s6.4,2.9,6.4,6.4
		C57,34.5,54.3,37.3,50.8,37.3z M50.8,22.3c-4.8,0-8.6,3.9-8.6,8.7c-0.1,2.3,0.8,4.4,2.4,6c1.6,1.7,3.9,2.6,6.2,2.6
		c4.8,0,8.7-3.9,8.7-8.6C59.5,26.1,55.6,22.3,50.8,22.3z M50.8,37.3c-3.5,0-6.3-2.8-6.3-6.3s2.8-6.4,6.3-6.4s6.4,2.9,6.4,6.4
		C57,34.5,54.3,37.3,50.8,37.3z M50.8,22.3c-4.8,0-8.6,3.9-8.6,8.7c-0.1,2.3,0.8,4.4,2.4,6c1.6,1.7,3.9,2.6,6.2,2.6
		c4.8,0,8.7-3.9,8.7-8.6C59.5,26.1,55.6,22.3,50.8,22.3z M50.8,37.3c-3.5,0-6.3-2.8-6.3-6.3s2.8-6.4,6.3-6.4s6.4,2.9,6.4,6.4
		C57,34.5,54.3,37.3,50.8,37.3z"/>
</g>
<g>
	<g>
		<g>
			<path class="st0" d="M92.8,79c0,3.5-2.4,8.3-13.9,11.7C71.3,93,61,94.2,49.8,94.2S28.2,93,20.7,90.7C9.2,87.3,6.8,82.5,6.8,79
				c0-6.7,8.6-12.5,22.9-15.5c0.1,0,0.1,0,0.2,0c0.4,0,0.9,0.4,1,0.9c0.1,0.3,0,0.5-0.1,0.7c-0.2,0.2-0.4,0.4-0.7,0.5
				C17.2,68.2,8.8,73.5,8.8,79c0,7.7,17.2,13.2,41,13.2c24.1,0,41-5.4,41-13.2c0-5.9-8-11-21.3-13.5c-0.5-0.1-1-0.5-0.8-1.2
				c0.1-0.4,0.4-0.9,1-0.9c0.1,0,0.2,0,0.2,0C84.5,66.3,92.8,72,92.8,79z"/>
		</g>
	</g>
</g>
</svg>
