<?xml version="1.0" encoding="utf-8"?>
<!-- Generator: Adobe Illustrator 24.0.2, SVG Export Plug-In . SVG Version: 6.00 Build 0)  -->
<svg version="1.1" id="Слой_1" xmlns="http://www.w3.org/2000/svg" xmlns:xlink="http://www.w3.org/1999/xlink" x="0px" y="0px"
	 viewBox="0 0 100 125" style="enable-background:new 0 0 100 125;" xml:space="preserve">
<style type="text/css">
	.st0{fill:#FFFFFF;}
</style>
<g>
	<g>
		<path class="st0" d="M64.7,24c-4.1,0-8,1.8-10.8,4.9l-0.6,0.8l-0.9-0.3c-2.4-0.8-4.9-1.2-7.3-1.2c-13.2,0-23.9,10.7-23.9,23.9
			C21.1,65.3,31.8,76,45,76c6.2,0,12.1-2.4,16.6-6.8c4.5-4.3,7-10.2,7.2-16.4l0-1l0.9-0.4c5.4-2.1,9.1-7.4,9.1-13.2
			C78.9,30.4,72.5,24,64.7,24z M45.9,31.1c1.5,1.2,3,2.7,4.3,4.3l0.4,0.5l-0.1,0.6c-0.1,0.6-0.1,1.2-0.1,1.7c0,0.7,0.1,1.3,0.2,2.2
			l0.2,1.4l-1.4,0.3c-1.5,0.3-3,0.5-4.5,0.5c-2.4,0-4.8-0.4-7-1.1l-1.7-0.6l0.9-1.6c1.7-3.2,4.1-6,6.9-8.2l0.9-0.7L45.9,31.1z
			 M33.9,51.5l0.1-1.6c0.2-2.3,0.6-4.5,1.4-6.6l0.5-1.4l1.4,0.5c2.5,0.9,5.1,1.3,7.7,1.3c1.6,0,3.3-0.2,5-0.6l1.2-0.3l0.5,1.1
			c0.8,1.9,2,3.5,3.6,4.9l3,2.6H33.9z M56.1,52.7L56,54.3c-0.2,2.7-0.8,5.3-1.8,7.7l-0.5,1.3l-1.3-0.4c-2.4-0.8-4.8-1.2-7.3-1.2
			c-2.5,0-5,0.4-7.3,1.2l-1.3,0.4L35.8,62c-1-2.5-1.6-5.1-1.8-7.7l-0.1-1.6H56.1z M30.3,34.8c2.6-2.2,5.6-3.8,8.9-4.7l5.2-1.4
			l-3.8,3.9c-1.8,1.9-3.4,4-4.6,6.4l-0.7,1.4l-1.3-0.8c-1.3-0.7-2.5-1.6-3.6-2.6L29,36L30.3,34.8z M22.4,49.9
			c0.4-4.3,2.1-8.4,4.8-11.9l1-1.2l1.2,1c1.3,1.2,2.8,2.2,4.4,3l1.1,0.6l-0.4,1.2c-0.9,2.4-1.4,4.9-1.6,7.5l-0.1,1.4H22.2L22.4,49.9
			z M27.8,66.9c-3.1-3.6-5-8-5.4-12.6l-0.2-1.7h10.5l0.1,1.4c0.2,2.9,0.9,5.7,1.9,8.4l0.5,1.3l-1.2,0.6c-1.5,0.8-2.9,1.7-4.2,2.7
			L28.8,68L27.8,66.9z M39.2,74c-3-0.8-5.7-2.1-8.1-4l-1.5-1.2l1.5-1.2c1.1-0.8,2.2-1.6,3.4-2.2l1.3-0.7l0.7,1.3
			c1.2,2,2.5,3.9,4.1,5.5l3.8,3.9L39.2,74z M44.1,73.1c-2.5-2-4.6-4.4-6.3-7.1l-1-1.7l1.9-0.5c2.1-0.6,4.2-0.9,6.4-0.9
			c2.1,0,4.3,0.3,6.4,0.9l1.9,0.6l-1,1.7c-1.7,2.8-3.8,5.1-6.3,7.1L45,73.8L44.1,73.1z M58.9,70c-2.4,1.9-5.1,3.2-8.1,4l-5.2,1.4
			l3.8-3.9c1.6-1.6,3-3.5,4.1-5.5l0.7-1.3l1.3,0.7c1.2,0.6,2.3,1.4,3.4,2.2l1.5,1.2L58.9,70z M67.6,54.3c-0.5,4.7-2.3,9-5.4,12.6
			l-1,1.1l-1.1-0.9c-1.3-1-2.7-2-4.2-2.7l-1.2-0.6l0.5-1.3c1.1-2.7,1.7-5.5,1.9-8.4l0.1-1.4h10.5L67.6,54.3z M64.7,51.8
			c-7.4,0-13.5-6.1-13.5-13.5s6.1-13.5,13.5-13.5c7.4,0,13.5,6.1,13.5,13.5S72.1,51.8,64.7,51.8z"/>
	</g>
	<g>
		<polygon class="st0" points="70,35.4 65.5,40 64.7,40.8 63,42.4 60.6,40 59.3,38.7 60.6,37.3 63,39.7 64.1,38.7 68.7,34 		"/>
	</g>
</g>
</svg>
