<?xml version="1.0" encoding="utf-8"?>
<!-- Generator: Adobe Illustrator 24.0.2, SVG Export Plug-In . SVG Version: 6.00 Build 0)  -->
<svg version="1.1" id="Слой_1" xmlns="http://www.w3.org/2000/svg" xmlns:xlink="http://www.w3.org/1999/xlink" x="0px" y="0px"
	 viewBox="0 0 64 80" style="enable-background:new 0 0 64 80;" xml:space="preserve">
<style type="text/css">
	.st0{fill:#FFFFFF;}
</style>
<g>
	<path class="st0" d="M59,44h-3V13c0-0.6-0.4-1-1-1H9c-0.6,0-1,0.4-1,1v31H5c-0.6,0-1,0.4-1,1v2c0,2.8,2.2,5,5,5h46c2.8,0,5-2.2,5-5
		v-2C60,44.4,59.6,44,59,44z M10,14h44v30H10V14z M58,47c0,1.7-1.3,3-3,3H9c-1.7,0-3-1.3-3-3v-1h52V47z M51,16H13c-0.6,0-1,0.4-1,1
		v24c0,0.6,0.4,1,1,1h38c0.6,0,1-0.4,1-1V17C52,16.4,51.6,16,51,16z M50,40H14V18h36V40z M22.4,25.8c-0.4-0.3-0.5-1-0.2-1.4
		c0.1-0.1,0.1-0.1,0.2-0.2l4-3c0.4-0.3,1.1-0.2,1.4,0.2c0.3,0.4,0.2,1.1-0.2,1.4l0,0L24.7,25l2.9,2.2c0.4,0.3,0.5,1,0.2,1.4
		c-0.3,0.4-1,0.5-1.4,0.2L22.4,25.8z M36.4,27.2l2.9-2.2l-2.9-2.2c-0.4-0.3-0.5-1-0.2-1.4c0.3-0.4,1-0.5,1.4-0.2l0,0l4,3
		c0.4,0.3,0.5,1,0.2,1.4c-0.1,0.1-0.1,0.1-0.2,0.2l-4,3c-0.4,0.3-1.1,0.2-1.4-0.2C35.9,28.2,36,27.5,36.4,27.2z M30,28.8l2-8
		c0.1-0.5,0.7-0.8,1.2-0.7c0.5,0.1,0.8,0.7,0.7,1.2l-2,8c-0.1,0.5-0.7,0.8-1.2,0.7C30.2,29.8,29.9,29.3,30,28.8z M19,38h26
		c0.6,0,1-0.4,1-1v-4c0-0.6-0.4-1-1-1H19c-0.6,0-1,0.4-1,1v4C18,37.6,18.4,38,19,38z M20,34h24v2H20V34z"/>
</g>
</svg>
