<svg xmlns="http://www.w3.org/2000/svg" width="24" height="23" viewBox="0 0 24 23"><g><g><path fill="#fff" d="M12.206 13.82c-1.246 0-2.257-.973-2.257-2.173 0-1.2 1.01-2.173 2.257-2.173s2.258.973 2.258 2.173c0 1.2-1.011 2.173-2.258 2.173zm5.28-6.017c.092.23.203.575.233 1.21.032.688.04.894.04 2.634 0 1.741-.008 1.947-.04 2.635-.03.635-.14.98-.233 1.21A2.203 2.203 0 0 1 16.2 16.73c-.238.09-.597.196-1.257.225-.714.031-.928.038-2.737.038-1.808 0-2.022-.007-2.736-.038-.66-.03-1.02-.135-1.258-.225a2.106 2.106 0 0 1-.778-.487 2.016 2.016 0 0 1-.507-.75c-.093-.23-.203-.575-.233-1.21-.033-.688-.04-.894-.04-2.635 0-1.74.007-1.946.04-2.634.03-.635.14-.98.233-1.21.109-.284.282-.54.507-.75.218-.216.484-.383.778-.487.239-.09.597-.196 1.258-.225.714-.031.928-.038 2.736-.038 1.809 0 2.023.007 2.737.039.66.028 1.019.135 1.257.224.295.104.56.27.779.487.225.21.398.467.507.75zm-5.28 7.192c1.92 0 3.478-1.499 3.478-3.348 0-1.849-1.557-3.347-3.478-3.347-1.92 0-3.477 1.498-3.477 3.347 0 1.85 1.557 3.348 3.477 3.348zm3.615-6.045c.45 0 .813-.35.813-.782 0-.433-.364-.783-.813-.783-.448 0-.812.35-.812.783 0 .432.364.782.812.782zM12.206.295C18.72.295 24 5.379 24 11.647 24 17.917 18.719 23 12.206 23 5.694 23 .413 17.916.413 11.647.413 5.38 5.693.295 12.206.295zm6.732 14.04c.033-.695.04-.917.04-2.688 0-1.77-.007-1.992-.04-2.687-.033-.694-.148-1.168-.315-1.583a3.184 3.184 0 0 0-.781-1.154 3.332 3.332 0 0 0-1.2-.752c-.43-.161-.923-.271-1.644-.303-.722-.031-.953-.04-2.792-.04s-2.07.009-2.792.04c-.72.032-1.213.142-1.644.303-.451.164-.86.42-1.199.752-.345.325-.611.72-.781 1.154-.168.415-.282.889-.315 1.583-.033.695-.04.917-.04 2.687 0 1.77.007 1.993.04 2.688.033.694.148 1.168.315 1.582.17.435.437.83.781 1.155.338.332.748.588 1.2.752.43.161.923.271 1.643.303.723.032.953.04 2.792.04 1.84 0 2.07-.008 2.793-.04.72-.032 1.213-.142 1.643-.303a3.403 3.403 0 0 0 1.98-1.907c.168-.414.283-.888.316-1.582z"/></g></g></svg>