<?xml version="1.0" encoding="utf-8"?>
<!-- Generator: Adobe Illustrator 24.0.2, SVG Export Plug-In . SVG Version: 6.00 Build 0)  -->
<svg version="1.1" id="Слой_1" xmlns="http://www.w3.org/2000/svg" xmlns:xlink="http://www.w3.org/1999/xlink" x="0px" y="0px"
	 viewBox="0 0 512 512" style="enable-background:new 0 0 512 512;" xml:space="preserve">
<style type="text/css">
	.st0{fill:#2770DD;stroke:#2770DD;stroke-width:15;stroke-miterlimit:10;}
</style>
<g>
	<g>
		<path class="st0" d="M299.7,32c-97.4,0-176.3,80.3-176.3,179.5c0,42.9,14.7,82.2,39.3,113L41.6,447.9c-7.2,7.3-7.2,19.1,0,26.4
			c7.2,7.3,18.8,7.3,25.9,0l121.2-123.4c30.3,25,68.9,40,111,40c97.4,0,176.3-80.3,176.3-179.5S397,32,299.7,32z M299.7,353.7
			c-77.1,0-139.7-63.7-139.7-142.2S222.6,69.3,299.7,69.3S439.4,133,439.4,211.5S376.8,353.7,299.7,353.7z"/>
	</g>
</g>
</svg>
