<svg xmlns="http://www.w3.org/2000/svg" width="24" height="23" viewBox="0 0 24 23"><g><g><path fill="#fff" d="M11.946-.001c6.599 0 11.947 5.148 11.947 11.5S18.545 23 11.946 23C5.348 23-.002 17.852-.002 11.5S5.348 0 11.946 0zm6.06 12.744c-.502-.472-.534-.745-.13-1.289.44-.595.916-1.166 1.36-1.758.415-.554.84-1.105 1.058-1.767.139-.422.016-.608-.433-.681a1.475 1.475 0 0 0-.235-.014l-2.663-.003c-.328-.006-.51.132-.625.413-.157.378-.318.756-.505 1.12-.423.829-.895 1.629-1.558 2.305-.147.15-.308.338-.553.26-.305-.107-.395-.592-.39-.755l-.002-2.959c-.06-.422-.157-.61-.593-.693H9.971c-.369 0-.554.138-.751.36-.113.129-.148.212.086.255.458.084.717.37.785.813.112.708.103 1.418.04 2.13a1.927 1.927 0 0 1-.141.607c-.134.305-.35.367-.634.18-.257-.17-.437-.41-.614-.65A14.152 14.152 0 0 1 7.118 7.72c-.125-.296-.34-.475-.665-.48-.8-.012-1.598-.013-2.397.002-.48.008-.624.233-.428.652.87 1.863 1.838 3.675 3.102 5.324.65.846 1.396 1.595 2.357 2.124 1.091.601 2.266.781 3.504.725.579-.025.753-.17.78-.726.018-.38.063-.758.257-1.1.19-.335.481-.4.815-.19.167.104.307.237.44.376.327.344.64.698.98 1.03.423.416.927.66 1.559.61l2.447.001c.394-.025.6-.49.373-.913a4.62 4.62 0 0 0-.59-.819c-.5-.576-1.088-1.07-1.646-1.593z"/></g></g></svg>